HIERARCHY
ROOT Hips
{
	OFFSET -14.64140 90.27770 -84.91600
	CHANNELS 6 Xposition Yposition Zposition Zrotation Xrotation Yrotation
	JOINT Spine
	{
		OFFSET 0.00000 13.20850 -1.60436
		CHANNELS 3 Zrotation Xrotation Yrotation
		JOINT Spine1
		{
			OFFSET 0.00000 8.61716 0.00000
			CHANNELS 3 Zrotation Xrotation Yrotation
			JOINT Spine2
			{
				OFFSET 0.00000 8.61717 0.00000
				CHANNELS 3 Zrotation Xrotation Yrotation
				JOINT Spine3
				{
					OFFSET 0.00000 8.61717 0.00000
					CHANNELS 3 Zrotation Xrotation Yrotation
					JOINT Neck
					{
						OFFSET 0.00000 11.07920 1.10792
						CHANNELS 3 Zrotation Xrotation Yrotation
						JOINT Neck1
						{
							OFFSET 0.00000 7.08032 0.00000
							CHANNELS 3 Zrotation Xrotation Yrotation
							JOINT Head
							{
								OFFSET 0.00000 7.08031 0.00000
								CHANNELS 3 Zrotation Xrotation Yrotation
								End site
								{
									OFFSET 0.00000 0.00000 0.00000
								}
							}
						}
					}
					JOINT RightShoulder
					{
						OFFSET -0.01000 7.91373 5.19711
						CHANNELS 3 Zrotation Xrotation Yrotation
						JOINT RightArm
						{
							OFFSET -18.41580 0.00000 0.00000
							CHANNELS 3 Zrotation Xrotation Yrotation
							JOINT RightForeArm
							{
								OFFSET -29.11090 0.00000 0.00000
								CHANNELS 3 Zrotation Xrotation Yrotation
								JOINT RightHand
								{
									OFFSET -24.65040 0.00000 0.00000
									CHANNELS 3 Zrotation Xrotation Yrotation
									JOINT RightHandThumb1
									{
										OFFSET -5.35114 -0.85590 3.97906
										CHANNELS 3 Zrotation Xrotation Yrotation
										JOINT RightHandThumb2
										{
											OFFSET -4.52789 0.00000 0.00000
											CHANNELS 3 Zrotation Xrotation Yrotation
											JOINT RightHandThumb3
											{
												OFFSET -2.46976 0.00000 0.00000
												CHANNELS 3 Zrotation Xrotation Yrotation
												End site
												{
													OFFSET 0.00000 0.00000 0.00000
												}
											}
										}
									}
									JOINT RightHandIndex1
									{
										OFFSET -14.26970 0.00000 2.88139
										CHANNELS 3 Zrotation Xrotation Yrotation
										JOINT RightHandIndex2
										{
											OFFSET -5.48836 0.00000 0.00000
											CHANNELS 3 Zrotation Xrotation Yrotation
											JOINT RightHandIndex3
											{
												OFFSET -3.01859 0.00000 0.00000
												CHANNELS 3 Zrotation Xrotation Yrotation
												End site
												{
													OFFSET 0.00000 0.00000 0.00000
												}
											}
										}
									}
									JOINT RightHandMiddle1
									{
										OFFSET -14.26970 0.00000 -0.09147
										CHANNELS 3 Zrotation Xrotation Yrotation
										JOINT RightHandMiddle2
										{
											OFFSET -6.17441 0.00000 0.00000
											CHANNELS 3 Zrotation Xrotation Yrotation
											JOINT RightHandMiddle3
											{
												OFFSET -3.56743 0.00000 0.00000
												CHANNELS 3 Zrotation Xrotation Yrotation
												End site
												{
													OFFSET 0.00000 0.00000 0.00000
												}
											}
										}
									}
									JOINT RightHandRing1
									{
										OFFSET -12.69180 0.00000 -3.06433
										CHANNELS 3 Zrotation Xrotation Yrotation
										JOINT RightHandRing2
										{
											OFFSET -5.62556 0.00000 0.00000
											CHANNELS 3 Zrotation Xrotation Yrotation
											JOINT RightHandRing3
											{
												OFFSET -3.56744 0.00000 0.00000
												CHANNELS 3 Zrotation Xrotation Yrotation
												End site
												{
													OFFSET 0.00000 0.00000 0.00000
												}
											}
										}
									}
									JOINT RightHandPinky1
									{
										OFFSET -11.11390 0.00000 -6.03719
										CHANNELS 3 Zrotation Xrotation Yrotation
										JOINT RightHandPinky2
										{
											OFFSET -4.52789 0.00000 0.00000
											CHANNELS 3 Zrotation Xrotation Yrotation
											JOINT RightHandPinky3
											{
												OFFSET -2.46976 0.00000 0.00000
												CHANNELS 3 Zrotation Xrotation Yrotation
												End site
												{
													OFFSET 0.00000 0.00000 0.00000
												}
											}
										}
									}
								}
							}
						}
					}
					JOINT LeftShoulder
					{
						OFFSET 0.01000 7.91373 5.19711
						CHANNELS 3 Zrotation Xrotation Yrotation
						JOINT LeftArm
						{
							OFFSET 18.41580 0.00000 0.00000
							CHANNELS 3 Zrotation Xrotation Yrotation
							JOINT LeftForeArm
							{
								OFFSET 29.11090 0.00000 0.00000
								CHANNELS 3 Zrotation Xrotation Yrotation
								JOINT LeftHand
								{
									OFFSET 24.65040 0.00000 0.00000
									CHANNELS 3 Zrotation Xrotation Yrotation
									JOINT LeftHandThumb1
									{
										OFFSET 5.35114 -0.85590 3.97906
										CHANNELS 3 Zrotation Xrotation Yrotation
										JOINT LeftHandThumb2
										{
											OFFSET 4.52789 0.00000 0.00000
											CHANNELS 3 Zrotation Xrotation Yrotation
											JOINT LeftHandThumb3
											{
												OFFSET 2.46977 0.00000 0.00000
												CHANNELS 3 Zrotation Xrotation Yrotation
												End site
												{
													OFFSET 0.00000 0.00000 0.00000
												}
											}
										}
									}
									JOINT LeftHandIndex1
									{
										OFFSET 14.26970 0.00000 2.88139
										CHANNELS 3 Zrotation Xrotation Yrotation
										JOINT LeftHandIndex2
										{
											OFFSET 5.48836 0.00000 0.00000
											CHANNELS 3 Zrotation Xrotation Yrotation
											JOINT LeftHandIndex3
											{
												OFFSET 3.01859 0.00000 0.00000
												CHANNELS 3 Zrotation Xrotation Yrotation
												End site
												{
													OFFSET 0.00000 0.00000 0.00000
												}
											}
										}
									}
									JOINT LeftHandMiddle1
									{
										OFFSET 14.26970 0.00000 -0.09147
										CHANNELS 3 Zrotation Xrotation Yrotation
										JOINT LeftHandMiddle2
										{
											OFFSET 6.17440 0.00000 0.00000
											CHANNELS 3 Zrotation Xrotation Yrotation
											JOINT LeftHandMiddle3
											{
												OFFSET 3.56744 0.00000 0.00000
												CHANNELS 3 Zrotation Xrotation Yrotation
												End site
												{
													OFFSET 0.00000 0.00000 0.00000
												}
											}
										}
									}
									JOINT LeftHandRing1
									{
										OFFSET 12.69180 0.00000 -3.06433
										CHANNELS 3 Zrotation Xrotation Yrotation
										JOINT LeftHandRing2
										{
											OFFSET 5.62556 0.00000 0.00000
											CHANNELS 3 Zrotation Xrotation Yrotation
											JOINT LeftHandRing3
											{
												OFFSET 3.56744 0.00000 0.00000
												CHANNELS 3 Zrotation Xrotation Yrotation
												End site
												{
													OFFSET 0.00000 0.00000 0.00000
												}
											}
										}
									}
									JOINT LeftHandPinky1
									{
										OFFSET 11.11390 0.00000 -6.03719
										CHANNELS 3 Zrotation Xrotation Yrotation
										JOINT LeftHandPinky2
										{
											OFFSET 4.52789 0.00000 0.00000
											CHANNELS 3 Zrotation Xrotation Yrotation
											JOINT LeftHandPinky3
											{
												OFFSET 2.46976 0.00000 0.00000
												CHANNELS 3 Zrotation Xrotation Yrotation
												End site
												{
													OFFSET 0.00000 0.00000 0.00000
												}
											}
										}
									}
								}
							}
						}
					}
					JOINT pCube4
					{
						OFFSET 0.00000 10.91090 1.10792
						CHANNELS 3 Zrotation Xrotation Yrotation
						End site
						{
							OFFSET 0.00000 0.00000 0.00000
						}
					}
				}
			}
		}
	}
	JOINT RightUpLeg
	{
		OFFSET -9.98441 0.00000 0.00000
		CHANNELS 3 Zrotation Xrotation Yrotation
		JOINT RightLeg
		{
			OFFSET 0.00000 -42.11790 0.00000
			CHANNELS 3 Zrotation Xrotation Yrotation
			JOINT RightFoot
			{
				OFFSET 0.00000 -45.00020 -0.00001
				CHANNELS 3 Zrotation Xrotation Yrotation
				JOINT RightForeFoot
				{
					OFFSET 0.00000 -3.74820 0.00000
					CHANNELS 3 Zrotation Xrotation Yrotation
					JOINT RightToeBase
					{
						OFFSET 0.00000 0.06325 14.43120
						CHANNELS 3 Zrotation Xrotation Yrotation
						End site
						{
							OFFSET 0.00000 0.00000 0.00000
						}
					}
				}
			}
		}
	}
	JOINT LeftUpLeg
	{
		OFFSET 9.98441 0.00000 0.00000
		CHANNELS 3 Zrotation Xrotation Yrotation
		JOINT LeftLeg
		{
			OFFSET 0.00000 -42.11800 0.00000
			CHANNELS 3 Zrotation Xrotation Yrotation
			JOINT LeftFoot
			{
				OFFSET 0.00000 -45.00070 0.00000
				CHANNELS 3 Zrotation Xrotation Yrotation
				JOINT LeftForeFoot
				{
					OFFSET 0.00000 -3.74824 0.00000
					CHANNELS 3 Zrotation Xrotation Yrotation
					JOINT LeftToeBase
					{
						OFFSET 0.00000 0.06325 14.43110
						CHANNELS 3 Zrotation Xrotation Yrotation
						End site
						{
							OFFSET 0.00000 0.00000 0.00000
						}
					}
				}
			}
		}
	}
}
MOTION
Frames: 4
Frame Time: 0.050000
-0.0015178059517422474 -0.04839285199614254 -0.015216652113988522 0.046849083818674885 0.038498673841727685 0.03192020514314075 -4.660255349219706 -0.8035223232437857 -0.4578694697612552 -1.0146506861858675 3.479930420750148 0.40380105815515216 -1.4473892418016112 -2.283164757745973 -0.5722707500776378 -0.6826729330371618 -0.10823181985420224 -0.8140089497063537 0.2673194542403326 12.451891184523515 -0.24486972689477776 0.4025621397891732 -0.098415888069512 -2.864812577275785 0.6499107529353643 -15.12360691372718 -0.2834696477311167 -7.004331932875175 2.366030953646665 -12.533176227523176 58.53306149793993 14.815321181919243 29.515732409584427 5.810937904409521 0.558019989744392 102.31130632091768 20.647817784875357 -0.7262835506027486 -3.9742005674376495 4.515691403127098 -0.11631730914833305 -1.5807883035664994 -0.005889080915386891 -0.03172330682310296 -56.256780888798446 -0.028041371946949417 0.03369604328237817 -56.20363609813527 -38.73568986958098 -0.012312649283236584 0.0083393050665538 0.005162467326381453 0.03201576127060726 -0.04108176761875761 -0.043824159899816494 0.006910775087888546 0.04565776421801615 -36.7069480896688 -0.035329257187855616 -0.019538624787651056 0.04337638825275436 0.01715030199721108 -0.015843197554323823 -0.03769934572219844 -0.03345302416305997 0.01187153060571439 -19.775161094525053 0.0306353296469993 -0.04600348029685751 0.02791847204202026 0.014214817181534653 -0.031036549662254127 0.02614504478501401 0.017248048812678794 0.036047864554044476 24.053785320629135 0.02441032942880376 0.04427870185939538 28.90712803515621 -0.026891370815278384 -0.04052645352467614 28.87617083708799 0.021490160706003993 0.01248694495945864 7.138438677394526 1.590111768749102 11.551064471022949 -63.37933855087179 22.610508724352524 -20.88859908600109 -44.61447464909169 5.4731200530470225 -94.2771450255215 -11.346750589611933 -2.325047950730483 0.7502373427169557 -0.5096942488707238 0.07089046187435394 -8.111529402405518 0.04420355460497431 -0.003884404072964356 44.545060606835705 0.007608979898161554 -0.02854352792284679 44.57161480946518 12.437837339931525 -0.049637716343609514 0.013029798883423224 0.011338009796533087 0.031699118593882046 -0.0459160079693705 0.03411945506328119 0.04174869583296972 0.0022110415925801056 11.075607637675928 -0.01307517635159274 -0.024789999055080395 0.039203957222486395 0.0320479390882469 -0.028500471104746298 0.041615625130344044 0.025637677855394142 -0.0027550346674599753 4.733550260488139 -0.03629107992419313 -0.03755762769258421 0.016787920500176284 0.01888280613130017 -0.007520782580305901 0.04501499216119089 -0.024162212415582262 -0.03337905124787996 -5.626837839379553 -0.022263458525630046 0.026805510515123566 -6.711540384508701 0.028668831175965137 0.02393232058567875 -6.731927645723039 0.015812000206131424 0.008073044217940247 0.006247598327025683 0.049576405257314375 0.0033233693661904626 8.030679043507318 3.4766406841969353 -19.225589270849706 0.018161527349088755 10.422844197092077 -0.019083725877868777 -5.601699841549508 -15.676790406530529 3.1872093532275048 -0.009157961717789731 -0.009144558658742159 0.016215850283416107 -0.004731641127967848 4.6769019173700075 0.03268644958407099 12.465049555505896 -8.242590466984861 6.855992952729816 -0.04868894442251532 46.36658142629466 0.012465354115130037 -4.3593925320483855 -14.721651835860047 -3.824455473314493 0.023194344789133677 0.0006038181295341362 -0.0003544598483368586 0.021566532119614686 -10.697808130701041 -0.039550105913854064 
-0.004315146929152705 -0.012991543879965043 -0.010539693740312479 0.029195660893213654 0.033047204553110957 -0.025171197901220167 -4.667091567392641 -0.705288114015268 -0.5093150373541054 -0.9453962699695408 3.451642290198237 0.36655053363771045 -1.46531816110359 -2.237013627658435 -0.6833101145405673 -0.7570367854301844 -0.054012603417389546 -0.8261328547273705 0.26709469493615406 12.419601775305285 -0.21046045058192953 0.37360410602270105 -0.10191510084723401 -2.6967174587663596 0.5961837976509341 -15.059700595014094 -0.1996368906550742 -6.8568501604534955 2.3405698322567288 -12.57168024172425 59.960769882178276 14.208259880751342 28.317296627182497 6.036615169183704 0.7921805229791317 101.24021210535398 21.296537504774946 -0.7423424155455821 -4.411504928766055 4.5324601522122006 -0.1329420010812836 -1.6386142981286327 -0.03996964744898633 0.004337720554119177 -56.253900851516384 -0.03291192806665506 -0.013906481506197083 -56.22069141067956 -38.73290639227048 -0.03396157808564094 -0.011445632469680486 -0.029911814366031235 -0.010359122806860232 -0.02384964198534558 -0.00661101547871555 0.03512277515775936 0.02501784657565418 -36.65435412153311 0.029192577156164287 0.03994194742500744 0.03769891404618794 -0.02284337743798417 0.030532620386203996 0.03270157367335506 0.013032661337528095 0.015260092530756534 -19.741485204358472 0.01780742800601262 0.004535531401822446 0.02648761336006709 -0.004639518934700583 0.034130125844709654 -0.02270937308795185 -0.03152678595436298 0.02206436821511363 24.021956860788475 -0.049237056712847393 -0.009521170013009431 28.868137459199076 -0.0023175444862017355 -0.039707528901216496 28.866942257015474 0.017292038895177136 -0.0035692889203842917 7.218023880272034 1.6703555199605244 11.490861070436837 -63.59149318547474 22.69107403843188 -21.10680429570222 -43.984383084883014 5.484455666814716 -93.80541143406379 -12.29374271073897 -2.96165561504468 1.3695008010391592 -0.48838278795439477 0.0590934424833958 -8.1159988770246 0.03325530214555479 -0.021898902124395207 44.558994356959325 -0.0007838612316480931 -0.025557158160950624 44.5797011423894 12.430173677114558 0.005442500074801399 -0.027730096090596432 0.011745312519844328 -0.007518862983814837 -0.004783877164200638 0.010625174478333698 -0.03475832968741028 -0.012484733003003365 11.122260917564898 0.0016811843997289954 -0.025995210897896342 0.021822027103338217 -0.015405877019477763 0.011977795915446617 0.005621277886155587 0.043473553263355336 0.021395734574579654 4.754991255290766 -0.012562209040821996 -0.016794391892658994 0.02570279431553599 -0.03102849871400605 -0.020562041707206657 0.00727438239798382 -0.030424403680696602 0.04972208799856259 -5.573136708680453 -0.036539302982098766 -0.02107941227062383 -6.68574069897428 -0.00619240564054965 -0.038221134754218435 -6.7116761056964 0.015411494327906039 -0.022746877900791416 0.00788768370599127 -0.010918589707564616 -0.028009048219918994 8.091337605010269 3.45762073907718 -19.205123354543783 -0.007646616028954945 10.345981294331844 -0.013601913697693174 -5.599872777008907 -15.697404080004988 3.15033782492892 0.02234061968272699 -0.028299338002368373 -0.020321496721767213 -0.021323242590880455 4.648017485641536 0.02615638304224361 12.48486481623963 -8.223973752243214 6.893330982385756 0.038313881378832 46.406607750086856 0.007188876278760093 -4.360467955323577 -14.737771182654022 -3.866741075934794 -0.04477304292207229 0.021409045785281123 0.013285252068241443 0.00829029102623271 -10.755349591504112 0.009033711428893405 
0.0010954856912960202 -0.014898345304726737 0.02724629693895744 0.0008441682022722025 0.006543501200983671 -0.02221635069940678 -4.640364944599028 -0.6635288925718535 -0.5316352873978759 -1.0132699745625384 3.4564594822310952 0.3529868174464494 -1.464847853076039 -2.2306268012820554 -0.8437820087593905 -0.6714638313652879 -0.11223232555349065 -0.8238723826798481 0.18669378473952614 12.4188932721655 -0.28140047458476125 0.4178452736010539 -0.03326166316314769 -2.816686987519408 0.6050631583895401 -14.912006336021113 -0.2641179932458378 -6.816166818393951 2.3661699589556267 -12.491883137579624 60.9766944677426 14.529716387014037 28.14206205468692 6.351526027106848 1.0882439571887361 100.33922303577899 21.791246762224436 -0.6921777614874772 -4.779880735510622 4.5547865511727155 -0.16248027051955677 -1.57676489320334 0.0220236002608667 -0.01043582471640431 -56.26751614426327 -0.017149868461417413 -0.005687486420597176 -56.23558843883118 -38.807985200218255 0.00788951934349306 0.029555974310922585 -0.045001378629848605 -0.010638852975459292 -0.02163383786154552 0.04912139009251089 0.021849184927338446 0.028446258154932902 -36.67929628206393 0.049714274652825796 -0.025199009409392632 -0.006833191640824295 -0.040253010403933545 -0.0048599209755622146 6.0853249079146775e-05 -0.03860030911649949 0.0071165273645703 -19.783092675746566 0.04970683587589553 0.028545328271834897 0.0002773867316323067 -0.0167505591887448 -0.036579804221205235 0.00970770967005352 0.02503557744269446 -0.030129942103815362 24.10082296172183 -0.0025079669223393624 -0.040185340799121456 28.83906490575494 -0.03739284861624814 -0.010842440287813285 28.822650721921928 -0.0045944378670971075 -0.006890557525264997 7.451682337710926 1.675842555986643 11.404807357565966 -63.05326534452452 23.164783380096303 -22.546879141181158 -39.678985814115464 4.363789023345316 -93.32349001176073 -13.087455165834445 -3.764864005567009 2.241086372095128 -0.4467248312943756 0.09831180259646023 -8.125406657616116 -0.048051017890290475 0.023798899546015783 44.540209119477765 -0.04357393097756562 -0.03212049815037732 44.60603943021904 12.431567468501592 0.018506857864040823 -0.01388062402730061 -0.03008367325707121 0.012291271599941546 0.04297027271976179 -0.03813281360143751 0.02748295932819482 -0.017886135244128805 11.121096885021318 0.032808260355094696 -0.010223556100608152 -0.03866944922561873 0.018429329373044544 -0.01919570215260959 -0.019527116194479 0.03876583327594571 -0.022152312112450834 4.782617057539848 0.03609770049642375 -0.04318826325384363 0.04330883054927714 -0.02277384115970161 0.025184121239522288 -0.0034738401659164106 0.012589176690609676 -0.035519644564240054 -5.557146067318915 -0.045867285529449735 -0.01137488082004713 -6.719463355507257 -7.529211513584934e-05 -0.019661873099698496 -6.748761767362501 -0.0022591084979136223 -0.01933175306491219 0.011340151975740785 0.00020836909955487858 0.036049935717894714 8.05710115919457 3.519975376374747 -19.185386332272294 -0.031341018987954404 10.435632591905408 0.025315803267815105 -5.64002876957202 -15.612696683865142 3.19057195379939 -0.032240760485750454 -0.04126466675635342 -0.04613246915302615 0.009850372773145467 4.672309093637936 0.010980562661816507 12.420883772252594 -8.236831914118634 6.889070349340572 -0.014197952706776285 46.41923667906292 -0.023287963713416238 -4.318769008220057 -14.772868673759392 -3.8095707143607447 -0.02374915379706733 0.019736120064878068 0.0013325884639154198 0.032279821864991905 -10.774117618269358 -0.031065758004434813 
0.04358869884300945 0.007350487777319004 -0.020618821468027043 -0.031682449619225866 0.002829576322433075 -0.010398227845977713 -4.53049410425876 -0.5911010658139688 -0.5025841870973591 -0.9274360921121416 3.4356701558459912 0.38854931994130576 -1.443675768584456 -2.3037739752952566 -1.005597939428943 -0.644943740104901 -0.002328833756902113 -0.8484774599075005 0.24130471216872748 12.472676459824125 -0.37191589489877264 0.36131258641975 0.08975125377484823 -2.9062729219162113 0.6675346653552614 -14.769528458352376 -0.27071375991837504 -6.785993215781783 2.3962320666784946 -12.396703025551249 61.655329483293244 15.651994513163574 28.46992056410539 6.870362073963765 1.3193640152596973 99.60853965461196 22.06903202624014 -0.6423453159521831 -5.117135520143941 4.506733044052965 -0.1356082115186351 -1.5514324763964746 -0.03345808894603998 -0.03242109360571424 -56.21132697736205 0.04665138960394896 0.002332374956499091 -56.23397644675789 -38.798273179472126 0.0003866785637386551 0.011800682488387303 0.02737192540898865 -0.0016684969365692902 -0.014527767303517888 0.0283541373950936 -0.014996657570886831 -0.02629346069348762 -36.68993647899506 -0.01634769535177784 -0.006082910592372838 0.03395067349324706 -0.022702484029277603 -0.00994470114717769 -0.030802346336751576 0.0379884514113147 0.02586512674099991 -19.76381918850895 -0.026447265611514427 0.01319924114415496 -0.014357936296803176 -0.027151225033290285 0.019210650326716813 0.01430859340663782 0.02751476541088686 0.015357226868365126 24.026097159184758 0.024628092014710803 -0.004139190465518922 28.899295137033064 -0.00927936368730736 0.023538685791153376 28.891923626145715 0.04984674878647879 -0.036189748733650044 7.706406126645916 1.7669801133143757 11.326225650793203 -62.15704595149928 23.778072325343576 -24.533889759118136 -33.98346912528531 2.771677961460977 -93.3850382948028 -13.626572351422968 -4.876740227562839 3.2074916640990807 -0.46029883050928294 0.1062281208390651 -8.169474413486666 0.019976664693742922 0.006354944344743872 44.54437126338811 -0.04617116570947408 0.016595744787785475 44.553958678786586 12.457695882741906 -0.048059139374237045 0.039167685058008356 0.01047506566394851 -0.009407898899027227 0.009032206592460979 -0.024873695753452083 -0.015440477899532784 0.0021035938972291794 11.13336012740626 0.004243817637962463 -3.274187707706629e-06 -0.01867007342171374 -0.014691162540973359 0.00856376691644621 -0.04433537477271214 -0.04175384754786919 0.016088256210076892 4.752792088164515 -0.012593492312503736 -0.017673169509307852 -0.023969063294283527 -0.0016022509623935515 -0.028892768281303348 -0.010014018708021372 0.015220389113483914 0.03991442774964528 -5.592823139813931 -0.028253329226589213 -0.021185134985927664 -6.679959318768121 -0.045219652160093014 0.007075861223823852 -6.753643371798571 0.02798369560380424 0.04556791921612728 -0.03560851556589556 0.02027694143096394 -0.027660899213045095 8.011624245868763 3.5065187178145973 -19.20902645864733 0.02330422616525765 10.369399418471085 0.04679275559795924 -5.612855162195978 -15.668753702210683 3.160640872032892 0.0014935762964618869 0.04480139747143905 0.028779529745238792 0.025323086589403555 4.711494112243338 -0.02903912130676402 12.473576962730041 -8.263457502549542 6.8819126560828305 -0.019355155329307278 46.37250295398083 -0.016227583335999482 -4.322750172643475 -14.729273930135427 -3.830536203340449 0.0024121839818087793 -0.0015541966161170611 -0.015639265322721335 0.01559555860816458 -10.776271097397903 0.02693422524989309 
